<svg xmlns="http://www.w3.org/2000/svg" xmlns:xlink="http://www.w3.org/1999/xlink" width="500" zoomAndPan="magnify" viewBox="0 0 375 374.999991" height="500" preserveAspectRatio="xMidYMid meet" version="1.0"><defs><clipPath id="4f1ea75fae"><path d="M 127.003906 37.5 L 273.253906 37.5 L 273.253906 301.5 L 127.003906 301.5 Z M 127.003906 37.5 " clip-rule="nonzero"/></clipPath></defs><g clip-path="url(#4f1ea75fae)"><path fill="#008083" d="M 146.558594 37.542969 C 136.519531 37.542969 128.4375 47.234375 128.4375 59.273438 L 128.4375 84.53125 C 127.621094 84.699219 127.007812 85.414062 127.007812 86.28125 L 127.007812 94.433594 C 127.007812 95.296875 127.621094 96.015625 128.4375 96.179688 L 128.4375 104.96875 C 127.621094 105.136719 127.007812 105.851562 127.007812 106.71875 L 127.007812 120.378906 C 127.007812 121.242188 127.621094 121.960938 128.4375 122.125 L 128.4375 128.035156 C 127.621094 128.199219 127.007812 128.914062 127.007812 129.78125 L 127.007812 143.441406 C 127.007812 144.304688 127.621094 145.023438 128.4375 145.1875 L 128.4375 279.738281 C 128.4375 291.78125 136.519531 301.472656 146.558594 301.472656 L 253.007812 301.472656 C 263.042969 301.472656 271.125 291.78125 271.125 279.738281 L 271.125 122.125 C 271.238281 122.144531 271.351562 122.15625 271.46875 122.15625 C 272.460938 122.15625 273.257812 121.363281 273.257812 120.375 L 273.257812 106.714844 C 273.257812 105.726562 272.460938 104.933594 271.46875 104.933594 C 271.351562 104.933594 271.238281 104.945312 271.125 104.964844 L 271.125 59.273438 C 271.125 47.234375 263.042969 37.539062 253.007812 37.539062 L 146.558594 37.539062 Z M 199.785156 43.003906 C 200.0625 43.003906 200.328125 43.054688 200.585938 43.164062 C 200.84375 43.269531 201.070312 43.417969 201.265625 43.617188 C 201.464844 43.8125 201.617188 44.039062 201.722656 44.292969 C 201.828125 44.550781 201.882812 44.816406 201.882812 45.09375 C 201.882812 45.371094 201.828125 45.636719 201.722656 45.894531 C 201.617188 46.152344 201.464844 46.375 201.265625 46.574219 C 201.070312 46.769531 200.84375 46.917969 200.585938 47.027344 C 200.328125 47.132812 200.0625 47.183594 199.785156 47.183594 C 199.503906 47.183594 199.238281 47.132812 198.980469 47.027344 C 198.722656 46.917969 198.496094 46.769531 198.300781 46.574219 C 198.101562 46.375 197.953125 46.152344 197.84375 45.894531 C 197.738281 45.636719 197.683594 45.371094 197.683594 45.09375 C 197.683594 44.816406 197.738281 44.550781 197.84375 44.292969 C 197.953125 44.039062 198.101562 43.8125 198.300781 43.617188 C 198.496094 43.417969 198.722656 43.269531 198.980469 43.164062 C 199.238281 43.054688 199.503906 43.003906 199.785156 43.003906 Z M 171.628906 51.386719 C 171.941406 51.386719 172.242188 51.445312 172.53125 51.566406 C 172.820312 51.683594 173.078125 51.855469 173.296875 52.074219 C 173.519531 52.296875 173.691406 52.550781 173.808594 52.839844 C 173.929688 53.128906 173.988281 53.425781 173.988281 53.738281 C 173.988281 54.050781 173.929688 54.351562 173.808594 54.640625 C 173.691406 54.925781 173.519531 55.183594 173.296875 55.402344 C 173.078125 55.621094 172.820312 55.792969 172.53125 55.914062 C 172.242188 56.03125 171.941406 56.089844 171.628906 56.089844 C 171.316406 56.089844 171.015625 56.03125 170.726562 55.914062 C 170.4375 55.792969 170.179688 55.621094 169.960938 55.402344 C 169.738281 55.183594 169.566406 54.925781 169.449219 54.640625 C 169.328125 54.351562 169.269531 54.050781 169.269531 53.738281 C 169.269531 53.425781 169.328125 53.128906 169.449219 52.839844 C 169.566406 52.550781 169.738281 52.296875 169.960938 52.074219 C 170.179688 51.855469 170.4375 51.683594 170.726562 51.566406 C 171.015625 51.445312 171.316406 51.386719 171.628906 51.386719 Z M 186.027344 52.707031 L 214.242188 52.707031 C 214.808594 52.707031 215.265625 53.289062 215.265625 54.015625 C 215.265625 54.738281 214.808594 55.320312 214.242188 55.320312 L 186.027344 55.320312 C 185.460938 55.320312 185.003906 54.738281 185.003906 54.015625 C 185.003906 53.289062 185.460938 52.707031 186.027344 52.707031 Z M 131.808594 67.15625 L 267.757812 67.15625 L 267.757812 271.859375 L 131.808594 271.859375 Z M 199.785156 276.609375 C 200.464844 276.609375 201.136719 276.671875 201.804688 276.804688 C 202.46875 276.9375 203.117188 277.132812 203.746094 277.394531 C 204.375 277.652344 204.972656 277.96875 205.535156 278.347656 C 206.101562 278.722656 206.625 279.152344 207.105469 279.628906 C 207.585938 280.109375 208.015625 280.632812 208.394531 281.195312 C 208.773438 281.757812 209.089844 282.351562 209.351562 282.980469 C 209.613281 283.605469 209.808594 284.25 209.941406 284.914062 C 210.074219 285.578125 210.140625 286.25 210.140625 286.929688 C 210.140625 287.605469 210.074219 288.277344 209.941406 288.941406 C 209.808594 289.605469 209.613281 290.253906 209.351562 290.878906 C 209.089844 291.503906 208.773438 292.097656 208.394531 292.664062 C 208.015625 293.226562 207.585938 293.746094 207.105469 294.226562 C 206.625 294.707031 206.101562 295.132812 205.535156 295.511719 C 204.972656 295.886719 204.375 296.203125 203.746094 296.464844 C 203.117188 296.722656 202.472656 296.917969 201.804688 297.050781 C 201.136719 297.183594 200.464844 297.25 199.785156 297.25 C 199.101562 297.25 198.429688 297.183594 197.761719 297.050781 C 197.097656 296.917969 196.449219 296.722656 195.820312 296.464844 C 195.191406 296.203125 194.59375 295.886719 194.03125 295.511719 C 193.464844 295.132812 192.941406 294.707031 192.460938 294.226562 C 191.980469 293.746094 191.550781 293.226562 191.171875 292.664062 C 190.792969 292.097656 190.476562 291.503906 190.214844 290.878906 C 189.953125 290.253906 189.757812 289.605469 189.625 288.941406 C 189.492188 288.277344 189.425781 287.605469 189.425781 286.929688 C 189.425781 286.25 189.492188 285.578125 189.625 284.914062 C 189.757812 284.25 189.953125 283.605469 190.214844 282.980469 C 190.476562 282.351562 190.792969 281.757812 191.171875 281.195312 C 191.550781 280.632812 191.980469 280.109375 192.460938 279.628906 C 192.941406 279.152344 193.464844 278.722656 194.03125 278.347656 C 194.59375 277.96875 195.191406 277.652344 195.820312 277.394531 C 196.449219 277.132812 197.097656 276.9375 197.761719 276.804688 C 198.429688 276.671875 199.101562 276.609375 199.785156 276.609375 Z M 199.785156 276.609375 " fill-opacity="1" fill-rule="nonzero"/></g></svg>
