
<svg fill="#008083" xmlns="http://www.w3.org/2000/svg"  viewBox="0 0 80 80" width="80px" height="80px"><path d="M 15 9 C 13.355469 9 12 10.355469 12 12 L 12 68 C 12 69.644531 13.355469 71 15 71 L 63 71 C 64.644531 71 66 69.644531 66 68 L 66 66 L 67 66 C 68.644531 66 70 64.644531 70 63 L 70 57 C 70 56.230469 69.695313 55.535156 69.214844 55 C 69.695313 54.464844 70 53.769531 70 53 L 70 47 C 70 46.230469 69.695313 45.535156 69.214844 45 C 69.695313 44.464844 70 43.769531 70 43 L 70 37 C 70 36.230469 69.695313 35.535156 69.214844 35 C 69.695313 34.464844 70 33.769531 70 33 L 70 27 C 70 26.230469 69.695313 25.535156 69.214844 25 C 69.695313 24.464844 70 23.769531 70 23 L 70 17 C 70 15.355469 68.644531 14 67 14 L 66 14 L 66 12 C 66 10.355469 64.644531 9 63 9 Z M 15 11 L 19 11 L 19 69 L 15 69 C 14.433594 69 14 68.566406 14 68 L 14 12 C 14 11.433594 14.433594 11 15 11 Z M 21 11 L 63 11 C 63.566406 11 64 11.433594 64 12 L 64 68 C 64 68.566406 63.566406 69 63 69 L 21 69 L 21 67 C 21.550781 67 22 66.550781 22 66 C 22 65.449219 21.550781 65 21 65 L 21 15 C 21.550781 15 22 14.550781 22 14 C 22 13.449219 21.550781 13 21 13 Z M 25 13 C 24.449219 13 24 13.449219 24 14 C 24 14.550781 24.449219 15 25 15 C 25.550781 15 26 14.550781 26 14 C 26 13.449219 25.550781 13 25 13 Z M 29 13 C 28.449219 13 28 13.449219 28 14 C 28 14.550781 28.449219 15 29 15 C 29.550781 15 30 14.550781 30 14 C 30 13.449219 29.550781 13 29 13 Z M 33 13 C 32.449219 13 32 13.449219 32 14 C 32 14.550781 32.449219 15 33 15 C 33.550781 15 34 14.550781 34 14 C 34 13.449219 33.550781 13 33 13 Z M 37 13 C 36.449219 13 36 13.449219 36 14 C 36 14.550781 36.449219 15 37 15 C 37.550781 15 38 14.550781 38 14 C 38 13.449219 37.550781 13 37 13 Z M 41 13 C 40.449219 13 40 13.449219 40 14 C 40 14.550781 40.449219 15 41 15 C 41.550781 15 42 14.550781 42 14 C 42 13.449219 41.550781 13 41 13 Z M 45 13 C 44.449219 13 44 13.449219 44 14 C 44 14.550781 44.449219 15 45 15 C 45.550781 15 46 14.550781 46 14 C 46 13.449219 45.550781 13 45 13 Z M 49 13 C 48.449219 13 48 13.449219 48 14 C 48 14.550781 48.449219 15 49 15 C 49.550781 15 50 14.550781 50 14 C 50 13.449219 49.550781 13 49 13 Z M 53 13 C 52.449219 13 52 13.449219 52 14 C 52 14.550781 52.449219 15 53 15 C 53.550781 15 54 14.550781 54 14 C 54 13.449219 53.550781 13 53 13 Z M 57 13 C 56.449219 13 56 13.449219 56 14 C 56 14.550781 56.449219 15 57 15 C 57.550781 15 58 14.550781 58 14 C 58 13.449219 57.550781 13 57 13 Z M 61 13 C 60.449219 13 60 13.449219 60 14 C 60 14.550781 60.449219 15 61 15 C 61.550781 15 62 14.550781 62 14 C 62 13.449219 61.550781 13 61 13 Z M 66 16 L 67 16 C 67.566406 16 68 16.433594 68 17 L 68 23 C 68 23.566406 67.566406 24 67 24 L 66 24 Z M 61 17 C 60.449219 17 60 17.449219 60 18 C 60 18.550781 60.449219 19 61 19 C 61.550781 19 62 18.550781 62 18 C 62 17.449219 61.550781 17 61 17 Z M 61 21 C 60.449219 21 60 21.449219 60 22 C 60 22.550781 60.449219 23 61 23 C 61.550781 23 62 22.550781 62 22 C 62 21.449219 61.550781 21 61 21 Z M 61 25 C 60.449219 25 60 25.449219 60 26 C 60 26.550781 60.449219 27 61 27 C 61.550781 27 62 26.550781 62 26 C 62 25.449219 61.550781 25 61 25 Z M 66 26 L 67 26 C 67.566406 26 68 26.433594 68 27 L 68 33 C 68 33.566406 67.566406 34 67 34 L 66 34 Z M 40.453125 28.378906 C 32.796875 28.378906 27.546875 33.679688 27.546875 41.410156 C 27.546875 49.398438 32.65625 54.457031 40.71875 54.457031 C 42.6875 54.457031 44.578125 54.175781 45.984375 53.691406 L 45.984375 51.722656 C 45 52.175781 42.890625 52.472656 40.75 52.472656 C 34.058594 52.472656 29.75 48.179688 29.75 41.503906 C 29.75 35.003906 34.140625 30.347656 40.25 30.347656 C 46.5 30.347656 50.78125 34.207031 50.78125 39.847656 C 50.78125 43.695313 49.515625 46.175781 47.546875 46.175781 C 46.421875 46.175781 45.78125 45.539063 45.78125 44.441406 L 45.78125 35.269531 L 43.421875 35.269531 L 43.421875 37.175781 L 43.171875 37.175781 C 42.5625 35.820313 41.15625 34.972656 39.515625 34.972656 C 36.3125 34.972656 34.078125 37.628906 34.078125 41.425781 C 34.078125 45.398438 36.265625 48.066406 39.515625 48.066406 C 41.34375 48.066406 42.75 47.179688 43.421875 45.582031 L 43.671875 45.582031 C 43.859375 47.113281 45.28125 48.207031 47.109375 48.207031 C 50.703125 48.207031 52.984375 44.976563 52.984375 39.878906 C 52.984375 33.101563 47.84375 28.378906 40.453125 28.378906 Z M 61 29 C 60.449219 29 60 29.449219 60 30 C 60 30.550781 60.449219 31 61 31 C 61.550781 31 62 30.550781 62 30 C 62 29.449219 61.550781 29 61 29 Z M 61 33 C 60.449219 33 60 33.449219 60 34 C 60 34.550781 60.449219 35 61 35 C 61.550781 35 62 34.550781 62 34 C 62 33.449219 61.550781 33 61 33 Z M 66 36 L 67 36 C 67.566406 36 68 36.433594 68 37 L 68 43 C 68 43.566406 67.566406 44 67 44 L 66 44 Z M 61 37 C 60.449219 37 60 37.449219 60 38 C 60 38.550781 60.449219 39 61 39 C 61.550781 39 62 38.550781 62 38 C 62 37.449219 61.550781 37 61 37 Z M 39.90625 37.128906 C 42.03125 37.128906 43.390625 38.816406 43.390625 41.488281 C 43.390625 44.164063 42.015625 45.863281 39.875 45.863281 C 37.828125 45.863281 36.578125 44.210938 36.578125 41.488281 C 36.578125 38.757813 37.8125 37.128906 39.90625 37.128906 Z M 61 41 C 60.449219 41 60 41.449219 60 42 C 60 42.550781 60.449219 43 61 43 C 61.550781 43 62 42.550781 62 42 C 62 41.449219 61.550781 41 61 41 Z M 61 45 C 60.449219 45 60 45.449219 60 46 C 60 46.550781 60.449219 47 61 47 C 61.550781 47 62 46.550781 62 46 C 62 45.449219 61.550781 45 61 45 Z M 66 46 L 67 46 C 67.566406 46 68 46.433594 68 47 L 68 53 C 68 53.566406 67.566406 54 67 54 L 66 54 Z M 61 49 C 60.449219 49 60 49.449219 60 50 C 60 50.550781 60.449219 51 61 51 C 61.550781 51 62 50.550781 62 50 C 62 49.449219 61.550781 49 61 49 Z M 61 53 C 60.449219 53 60 53.449219 60 54 C 60 54.550781 60.449219 55 61 55 C 61.550781 55 62 54.550781 62 54 C 62 53.449219 61.550781 53 61 53 Z M 66 56 L 67 56 C 67.566406 56 68 56.433594 68 57 L 68 63 C 68 63.566406 67.566406 64 67 64 L 66 64 Z M 61 57 C 60.449219 57 60 57.449219 60 58 C 60 58.550781 60.449219 59 61 59 C 61.550781 59 62 58.550781 62 58 C 62 57.449219 61.550781 57 61 57 Z M 61 61 C 60.449219 61 60 61.449219 60 62 C 60 62.550781 60.449219 63 61 63 C 61.550781 63 62 62.550781 62 62 C 62 61.449219 61.550781 61 61 61 Z M 25 65 C 24.449219 65 24 65.449219 24 66 C 24 66.550781 24.449219 67 25 67 C 25.550781 67 26 66.550781 26 66 C 26 65.449219 25.550781 65 25 65 Z M 29 65 C 28.449219 65 28 65.449219 28 66 C 28 66.550781 28.449219 67 29 67 C 29.550781 67 30 66.550781 30 66 C 30 65.449219 29.550781 65 29 65 Z M 33 65 C 32.449219 65 32 65.449219 32 66 C 32 66.550781 32.449219 67 33 67 C 33.550781 67 34 66.550781 34 66 C 34 65.449219 33.550781 65 33 65 Z M 37 65 C 36.449219 65 36 65.449219 36 66 C 36 66.550781 36.449219 67 37 67 C 37.550781 67 38 66.550781 38 66 C 38 65.449219 37.550781 65 37 65 Z M 41 65 C 40.449219 65 40 65.449219 40 66 C 40 66.550781 40.449219 67 41 67 C 41.550781 67 42 66.550781 42 66 C 42 65.449219 41.550781 65 41 65 Z M 45 65 C 44.449219 65 44 65.449219 44 66 C 44 66.550781 44.449219 67 45 67 C 45.550781 67 46 66.550781 46 66 C 46 65.449219 45.550781 65 45 65 Z M 49 65 C 48.449219 65 48 65.449219 48 66 C 48 66.550781 48.449219 67 49 67 C 49.550781 67 50 66.550781 50 66 C 50 65.449219 49.550781 65 49 65 Z M 53 65 C 52.449219 65 52 65.449219 52 66 C 52 66.550781 52.449219 67 53 67 C 53.550781 67 54 66.550781 54 66 C 54 65.449219 53.550781 65 53 65 Z M 57 65 C 56.449219 65 56 65.449219 56 66 C 56 66.550781 56.449219 67 57 67 C 57.550781 67 58 66.550781 58 66 C 58 65.449219 57.550781 65 57 65 Z M 61 65 C 60.449219 65 60 65.449219 60 66 C 60 66.550781 60.449219 67 61 67 C 61.550781 67 62 66.550781 62 66 C 62 65.449219 61.550781 65 61 65 Z"/></svg>