<svg width="222" height="222" viewBox="0 0 222 222" fill="none" xmlns="http://www.w3.org/2000/svg">
<rect width="222" height="222" rx="111" fill="#7535FD"/>
<path fill-rule="evenodd" clip-rule="evenodd" d="M79.9904 105.346C66.1063 97.3297 61.3492 79.5761 69.3652 65.692C77.3812 51.8078 95.1348 47.0508 109.019 55.0668L141.402 73.7631C154.501 81.3256 159.476 97.555 153.266 111.026C159.824 124.59 154.888 141.12 141.631 148.774L109.248 167.47C95.3642 175.486 77.6106 170.729 69.5946 156.845C61.5786 142.961 66.3356 125.207 80.2198 117.191L90.3636 111.335L79.9904 105.346ZM100.204 117.016L84.9269 125.836C75.6316 131.203 72.4467 143.089 77.8134 152.384C83.18 161.679 95.0659 164.864 104.361 159.497L136.744 140.801C144.013 136.605 147.545 128.422 146.174 120.609C137.08 128.691 123.487 130.459 112.373 124.042L100.204 117.016ZM141.943 111.508C135.971 118.448 125.726 120.389 117.507 115.643L110.044 111.335L117.31 107.14C125.62 102.342 136.002 104.379 141.943 111.508ZM146.411 101.935C137.318 93.8471 123.72 92.0765 112.603 98.4949L100.204 105.653L85.1236 96.9468C75.8283 91.5802 72.6434 79.6943 78.0101 70.399C83.3768 61.1037 95.2626 57.9189 104.558 63.2855L136.941 81.9819C144.135 86.1355 147.669 94.1945 146.411 101.935Z" fill="white"/>
<path d="M69.3651 65.692L71.5302 66.942L69.3651 65.692ZM79.9903 105.346L81.2403 103.181L79.9903 105.346ZM109.019 55.0668L110.269 52.9017V52.9017L109.019 55.0668ZM141.402 73.7631L140.152 75.9282V75.9282L141.402 73.7631ZM153.266 111.026L150.995 109.979L150.501 111.051L151.015 112.114L153.266 111.026ZM141.631 148.774L142.881 150.939L141.631 148.774ZM109.248 167.47L107.998 165.305L109.248 167.47ZM69.5945 156.845L67.4294 158.095H67.4294L69.5945 156.845ZM80.2197 117.191L78.9697 115.026H78.9697L80.2197 117.191ZM90.3635 111.335L91.6135 113.5L95.3635 111.335L91.6135 109.17L90.3635 111.335ZM100.204 117.016L101.454 114.851L100.204 114.129L98.9538 114.851L100.204 117.016ZM84.9268 125.836L86.1768 128.001L84.9268 125.836ZM77.8133 152.384L75.6483 153.634L77.8133 152.384ZM104.361 159.497L103.111 157.332L104.361 159.497ZM136.744 140.801L137.994 142.966L136.744 140.801ZM146.174 120.609L148.636 120.177L147.862 115.764L144.513 118.74L146.174 120.609ZM112.373 124.042L111.123 126.207L112.373 124.042ZM117.507 115.643L118.757 113.478L117.507 115.643ZM141.943 111.508L143.838 113.138L145.219 111.533L143.864 109.907L141.943 111.508ZM110.044 111.335L108.794 109.17L105.044 111.335L108.794 113.5L110.044 111.335ZM117.31 107.14L118.56 109.305L117.31 107.14ZM146.411 101.935L144.749 103.803L148.149 106.826L148.879 102.336L146.411 101.935ZM112.603 98.4949L113.853 100.66L112.603 98.4949ZM100.204 105.653L98.9538 107.818L100.204 108.54L101.454 107.818L100.204 105.653ZM85.1235 96.9468L83.8735 99.1119L85.1235 96.9468ZM78.0101 70.399L75.845 69.149V69.149L78.0101 70.399ZM104.558 63.2855L105.808 61.1204L104.558 63.2855ZM136.941 81.9818L138.191 79.8168L136.941 81.9818ZM67.2001 64.442C58.4937 79.5219 63.6605 98.8044 78.7403 107.511L81.2403 103.181C68.5519 95.855 64.2045 79.6304 71.5302 66.942L67.2001 64.442ZM110.269 52.9017C95.189 44.1954 75.9064 49.3621 67.2001 64.442L71.5302 66.942C78.8558 54.2536 95.0805 49.9062 107.769 57.2319L110.269 52.9017ZM142.652 71.5981L110.269 52.9017L107.769 57.2319L140.152 75.9282L142.652 71.5981ZM155.536 112.072C162.282 97.4391 156.88 79.8125 142.652 71.5981L140.152 75.9282C152.121 82.8387 156.669 97.6709 150.995 109.979L155.536 112.072ZM142.881 150.939C157.28 142.626 162.64 124.672 155.516 109.937L151.015 112.114C157.007 124.507 152.495 139.615 140.381 146.609L142.881 150.939ZM110.498 169.635L142.881 150.939L140.381 146.609L107.998 165.305L110.498 169.635ZM67.4294 158.095C76.1358 173.175 95.4184 178.342 110.498 169.635L107.998 165.305C95.3099 172.631 79.0852 168.283 71.7596 155.595L67.4294 158.095ZM78.9697 115.026C63.8898 123.733 58.7231 143.015 67.4294 158.095L71.7596 155.595C64.4339 142.907 68.7813 126.682 81.4697 119.356L78.9697 115.026ZM89.1135 109.17L78.9697 115.026L81.4697 119.356L91.6135 113.5L89.1135 109.17ZM78.7403 107.511L89.1135 113.5L91.6135 109.17L81.2403 103.181L78.7403 107.511ZM98.9538 114.851L83.6768 123.671L86.1768 128.001L101.454 119.181L98.9538 114.851ZM83.6768 123.671C73.1858 129.728 69.5913 143.143 75.6483 153.634L79.9784 151.134C75.3021 143.034 78.0772 132.678 86.1768 128.001L83.6768 123.671ZM75.6483 153.634C81.7053 164.125 95.1201 167.72 105.611 161.663L103.111 157.332C95.0116 162.009 84.6547 159.234 79.9784 151.134L75.6483 153.634ZM105.611 161.663L137.994 142.966L135.494 138.636L103.111 157.332L105.611 161.663ZM137.994 142.966C146.201 138.228 150.183 128.991 148.636 120.177L143.711 121.041C144.907 127.853 141.824 134.981 135.494 138.636L137.994 142.966ZM111.123 126.207C123.198 133.178 137.96 131.254 147.835 122.477L144.513 118.74C136.201 126.128 123.777 127.739 113.623 121.877L111.123 126.207ZM98.9538 119.181L111.123 126.207L113.623 121.877L101.454 114.851L98.9538 119.181ZM116.257 117.808C125.536 123.166 137.097 120.972 143.838 113.138L140.048 109.877C134.846 115.923 125.916 117.612 118.757 113.478L116.257 117.808ZM108.794 113.5L116.257 117.808L118.757 113.478L111.294 109.17L108.794 113.5ZM116.06 104.975L108.794 109.17L111.294 113.5L118.56 109.305L116.06 104.975ZM143.864 109.907C137.157 101.86 125.442 99.5581 116.06 104.975L118.56 109.305C125.799 105.125 134.847 106.898 140.023 113.108L143.864 109.907ZM148.072 100.067C138.198 91.2844 123.43 89.3567 111.353 96.3298L113.853 100.66C124.009 94.7962 136.437 96.4097 144.749 103.803L148.072 100.067ZM111.353 96.3298L98.9538 103.488L101.454 107.818L113.853 100.66L111.353 96.3298ZM83.8735 99.1119L98.9538 107.818L101.454 103.488L86.3735 94.7817L83.8735 99.1119ZM75.845 69.149C69.788 79.64 73.3825 93.0549 83.8735 99.1119L86.3735 94.7817C78.2739 90.1054 75.4988 79.7485 80.1751 71.649L75.845 69.149ZM105.808 61.1204C95.3169 55.0634 81.902 58.6579 75.845 69.149L80.1751 71.649C84.8514 63.5494 95.2083 60.7743 103.308 65.4506L105.808 61.1204ZM138.191 79.8168L105.808 61.1204L103.308 65.4506L135.691 84.1469L138.191 79.8168ZM148.879 102.336C150.298 93.6041 146.314 84.5067 138.191 79.8168L135.691 84.1469C141.956 87.7643 145.04 94.7849 143.943 101.534L148.879 102.336Z" fill="white"/>
</svg>
