<svg class="h-[150px]" viewBox="0 0 870 311" fill="none" xmlns="http://www.w3.org/2000/svg">
<path d="M267.7 123.779H354.736C357.747 123.779 360.433 124.959 362.793 127.319C365.234 129.598 366.455 132.324 366.455 135.498C366.455 138.184 365.56 140.666 363.77 142.944L292.725 226.807H354.736C357.992 226.807 360.758 227.946 363.037 230.225C365.316 232.503 366.455 235.27 366.455 238.525C366.455 241.618 365.316 244.303 363.037 246.582C360.758 248.861 357.992 250 354.736 250H267.7C264.689 250 262.004 248.901 259.644 246.704C257.365 244.507 256.226 241.781 256.226 238.525C256.226 235.921 257.161 233.398 259.033 230.957L329.956 146.973H267.7C264.608 146.973 261.922 145.833 259.644 143.555C257.365 141.276 256.226 138.59 256.226 135.498C256.226 132.243 257.365 129.476 259.644 127.197C261.922 124.919 264.608 123.779 267.7 123.779ZM434.448 123.779C445.516 123.779 455.933 126.587 465.698 132.202C475.464 137.736 483.236 145.345 489.014 155.029C489.99 156.738 490.479 158.651 490.479 160.767C490.479 165.243 488.485 168.579 484.497 170.776L406.25 214.966C414.144 222.86 423.543 226.807 434.448 226.807C441.528 226.807 448.12 225.057 454.224 221.558C460.409 218.058 465.332 213.298 468.994 207.275C471.191 203.451 474.528 201.538 479.004 201.538C482.096 201.538 484.782 202.677 487.061 204.956C489.339 207.235 490.479 210.002 490.479 213.257C490.479 215.373 489.99 217.285 489.014 218.994C483.236 228.516 475.464 236.084 465.698 241.699C455.933 247.233 445.516 250 434.448 250C423.055 250 412.516 247.192 402.832 241.577C393.148 235.962 385.498 228.312 379.883 218.628C374.268 208.944 371.46 198.405 371.46 187.012C371.46 175.618 374.268 165.08 379.883 155.396C385.498 145.63 393.148 137.939 402.832 132.324C412.516 126.628 423.055 123.779 434.448 123.779ZM434.448 146.973C423.462 146.973 414.103 150.92 406.372 158.813C398.641 166.626 394.775 176.025 394.775 187.012C394.775 188.721 394.938 191.203 395.264 194.458L461.426 157.471C453.939 150.472 444.946 146.973 434.448 146.973ZM565.063 123.779C573.283 123.779 581.177 125.529 588.745 129.028C596.395 132.446 602.987 137.288 608.521 143.555C610.555 145.833 611.572 148.315 611.572 151.001C611.572 153.931 610.433 156.616 608.154 159.058C605.957 161.499 603.271 162.72 600.098 162.72C596.68 162.72 593.75 161.377 591.309 158.691C584.229 150.879 575.48 146.973 565.063 146.973C555.298 146.973 546.997 150.391 540.161 157.227C533.407 164.062 530.029 172.323 530.029 182.007V238.525C530.029 241.618 528.89 244.303 526.611 246.582C524.333 248.861 521.566 250 518.311 250C515.218 250 512.533 248.861 510.254 246.582C507.975 244.303 506.836 241.618 506.836 238.525V182.007C506.836 174.113 508.341 166.585 511.353 159.424C514.445 152.262 518.595 146.077 523.804 140.869C529.012 135.661 535.197 131.51 542.358 128.418C549.601 125.326 557.17 123.779 565.063 123.779ZM648.926 132.324C658.61 126.628 669.149 123.779 680.542 123.779C691.935 123.779 702.474 126.628 712.158 132.324C721.924 137.939 729.614 145.63 735.229 155.396C740.926 165.08 743.774 175.618 743.774 187.012C743.774 198.405 740.926 208.944 735.229 218.628C729.614 228.312 721.924 235.962 712.158 241.577C702.474 247.192 691.935 250 680.542 250C669.149 250 658.61 247.192 648.926 241.577C639.242 235.962 631.592 228.312 625.977 218.628C620.361 208.944 617.554 198.405 617.554 187.012C617.554 175.618 620.361 165.08 625.977 155.396C631.592 145.63 639.242 137.939 648.926 132.324ZM708.74 158.813C700.928 150.92 691.528 146.973 680.542 146.973C669.556 146.973 660.197 150.92 652.466 158.813C644.735 166.626 640.869 176.025 640.869 187.012C640.869 197.998 644.735 207.397 652.466 215.21C660.197 222.941 669.556 226.807 680.542 226.807C691.528 226.807 700.928 222.941 708.74 215.21C716.634 207.397 720.581 197.998 720.581 187.012C720.581 176.025 716.634 166.626 708.74 158.813ZM809.692 123.779C814.575 123.779 819.377 124.308 824.097 125.366C828.898 126.343 832.886 127.523 836.06 128.906C839.315 130.208 842.285 131.632 844.971 133.179C847.738 134.725 849.691 135.946 850.83 136.841C851.969 137.655 852.702 138.224 853.027 138.55C856.038 140.91 857.544 143.88 857.544 147.461C857.544 150.391 856.405 153.076 854.126 155.518C851.847 157.878 849.202 159.058 846.191 159.058C843.669 159.058 841.187 158.203 838.745 156.494C837.606 155.518 836.1 154.46 834.229 153.32C832.438 152.181 829.061 150.838 824.097 149.292C819.214 147.746 814.087 146.973 808.716 146.973C795.207 146.973 788.452 151.164 788.452 159.546C788.452 162.15 789.347 164.388 791.138 166.26C792.928 168.132 795.247 169.556 798.096 170.532C800.944 171.509 803.752 172.201 806.519 172.607C809.367 173.014 812.174 173.218 814.941 173.218C819.255 173.218 823.527 173.584 827.759 174.316C831.991 175.049 836.304 176.31 840.698 178.101C845.093 179.891 848.918 182.17 852.173 184.937C855.509 187.622 858.236 191.162 860.352 195.557C862.467 199.87 863.525 204.753 863.525 210.205C863.525 218.669 861.247 225.993 856.689 232.178C852.132 238.281 846.191 242.839 838.867 245.85C831.624 248.779 823.486 250.244 814.453 250.244C808.268 250.244 802.368 249.593 796.753 248.291C791.219 246.989 786.458 245.239 782.471 243.042C778.483 240.763 774.943 238.525 771.851 236.328C768.84 234.049 766.276 231.649 764.16 229.126C762.044 226.522 760.539 224.65 759.644 223.511C758.83 222.29 758.179 221.273 757.69 220.459C756.714 219.076 756.226 217.163 756.226 214.722C756.226 211.548 757.324 208.862 759.521 206.665C761.8 204.386 764.608 203.247 767.944 203.247C771.932 203.247 775.187 205.16 777.71 208.984C778.117 209.717 778.646 210.531 779.297 211.426C779.948 212.321 781.331 213.786 783.447 215.82C785.645 217.855 787.964 219.645 790.405 221.191C792.928 222.656 796.265 223.999 800.415 225.22C804.565 226.44 809.001 227.051 813.721 227.051C816.569 227.051 819.417 226.807 822.266 226.318C825.114 225.749 827.962 224.894 830.811 223.755C833.659 222.534 835.978 220.785 837.769 218.506C839.559 216.146 840.454 213.379 840.454 210.205C840.454 205.811 838.46 202.596 834.473 200.562C830.566 198.446 823.405 196.655 812.988 195.19C809.082 194.702 806.03 194.295 803.833 193.97C801.636 193.644 798.625 193.075 794.8 192.261C790.975 191.447 787.882 190.552 785.522 189.575C783.244 188.599 780.64 187.215 777.71 185.425C774.862 183.634 772.624 181.641 770.996 179.443C769.45 177.246 768.107 174.52 766.968 171.265C765.828 167.928 765.259 164.266 765.259 160.278C765.259 148.722 769.328 139.771 777.466 133.423C785.685 126.994 796.427 123.779 809.692 123.779Z" fill="#1C065A"/>
<rect y="79" width="222" height="222" rx="111" fill="#7535FD"/>
<path fill-rule="evenodd" clip-rule="evenodd" d="M79.9904 184.346C66.1063 176.33 61.3492 158.576 69.3652 144.692C77.3812 130.808 95.1348 126.051 109.019 134.067L141.402 152.763C154.501 160.326 159.476 176.555 153.266 190.026C159.824 203.59 154.888 220.12 141.631 227.774L109.248 246.47C95.3642 254.486 77.6106 249.729 69.5946 235.845C61.5786 221.961 66.3356 204.207 80.2198 196.191L90.3636 190.335L79.9904 184.346ZM100.204 196.016L84.9269 204.836C75.6316 210.203 72.4467 222.089 77.8134 231.384C83.18 240.679 95.0659 243.864 104.361 238.497L136.744 219.801C144.013 215.605 147.545 207.422 146.174 199.609C137.08 207.691 123.487 209.459 112.373 203.042L100.204 196.016ZM141.943 190.508C135.971 197.448 125.726 199.389 117.507 194.643L110.044 190.335L117.31 186.14C125.62 181.342 136.002 183.379 141.943 190.508ZM146.411 180.935C137.318 172.847 123.72 171.076 112.603 177.495L100.204 184.653L85.1236 175.947C75.8283 170.58 72.6434 158.694 78.0101 149.399C83.3768 140.104 95.2626 136.919 104.558 142.286L136.941 160.982C144.135 165.136 147.669 173.195 146.411 180.935Z" fill="white"/>
<path d="M69.3651 144.692L71.5302 145.942L69.3651 144.692ZM79.9903 184.346L81.2403 182.181L79.9903 184.346ZM109.019 134.067L110.269 131.902V131.902L109.019 134.067ZM141.402 152.763L140.152 154.928V154.928L141.402 152.763ZM153.266 190.026L150.995 188.979L150.501 190.051L151.015 191.114L153.266 190.026ZM141.631 227.774L142.881 229.939L141.631 227.774ZM109.248 246.47L107.998 244.305L109.248 246.47ZM69.5945 235.845L67.4294 237.095H67.4294L69.5945 235.845ZM80.2197 196.191L78.9697 194.026H78.9697L80.2197 196.191ZM90.3635 190.335L91.6135 192.5L95.3635 190.335L91.6135 188.17L90.3635 190.335ZM100.204 196.016L101.454 193.851L100.204 193.129L98.9538 193.851L100.204 196.016ZM84.9268 204.836L86.1768 207.001L84.9268 204.836ZM77.8133 231.384L75.6483 232.634L77.8133 231.384ZM104.361 238.497L103.111 236.332L104.361 238.497ZM136.744 219.801L137.994 221.966L136.744 219.801ZM146.174 199.609L148.636 199.177L147.862 194.764L144.513 197.74L146.174 199.609ZM112.373 203.042L111.123 205.207L112.373 203.042ZM117.507 194.643L118.757 192.478L117.507 194.643ZM141.943 190.508L143.838 192.138L145.219 190.533L143.864 188.907L141.943 190.508ZM110.044 190.335L108.794 188.17L105.044 190.335L108.794 192.5L110.044 190.335ZM117.31 186.14L118.56 188.305L117.31 186.14ZM146.411 180.935L144.749 182.803L148.149 185.826L148.879 181.336L146.411 180.935ZM112.603 177.495L113.853 179.66L112.603 177.495ZM100.204 184.653L98.9538 186.818L100.204 187.54L101.454 186.818L100.204 184.653ZM85.1235 175.947L83.8735 178.112L85.1235 175.947ZM78.0101 149.399L75.845 148.149V148.149L78.0101 149.399ZM104.558 142.285L105.808 140.12L104.558 142.285ZM136.941 160.982L138.191 158.817L136.941 160.982ZM67.2001 143.442C58.4937 158.522 63.6605 177.804 78.7403 186.511L81.2403 182.181C68.5519 174.855 64.2045 158.63 71.5302 145.942L67.2001 143.442ZM110.269 131.902C95.189 123.195 75.9064 128.362 67.2001 143.442L71.5302 145.942C78.8558 133.254 95.0805 128.906 107.769 136.232L110.269 131.902ZM142.652 150.598L110.269 131.902L107.769 136.232L140.152 154.928L142.652 150.598ZM155.536 191.072C162.282 176.439 156.88 158.813 142.652 150.598L140.152 154.928C152.121 161.839 156.669 176.671 150.995 188.979L155.536 191.072ZM142.881 229.939C157.28 221.626 162.64 203.672 155.516 188.937L151.015 191.114C157.007 203.507 152.495 218.615 140.381 225.609L142.881 229.939ZM110.498 248.635L142.881 229.939L140.381 225.609L107.998 244.305L110.498 248.635ZM67.4294 237.095C76.1358 252.175 95.4184 257.342 110.498 248.635L107.998 244.305C95.3099 251.631 79.0852 247.283 71.7596 234.595L67.4294 237.095ZM78.9697 194.026C63.8898 202.733 58.7231 222.015 67.4294 237.095L71.7596 234.595C64.4339 221.907 68.7813 205.682 81.4697 198.356L78.9697 194.026ZM89.1135 188.17L78.9697 194.026L81.4697 198.356L91.6135 192.5L89.1135 188.17ZM78.7403 186.511L89.1135 192.5L91.6135 188.17L81.2403 182.181L78.7403 186.511ZM98.9538 193.851L83.6768 202.671L86.1768 207.001L101.454 198.181L98.9538 193.851ZM83.6768 202.671C73.1858 208.728 69.5913 222.143 75.6483 232.634L79.9784 230.134C75.3021 222.034 78.0772 211.678 86.1768 207.001L83.6768 202.671ZM75.6483 232.634C81.7053 243.125 95.1201 246.72 105.611 240.663L103.111 236.332C95.0116 241.009 84.6547 238.234 79.9784 230.134L75.6483 232.634ZM105.611 240.663L137.994 221.966L135.494 217.636L103.111 236.332L105.611 240.663ZM137.994 221.966C146.201 217.228 150.183 207.991 148.636 199.177L143.711 200.041C144.907 206.853 141.824 213.981 135.494 217.636L137.994 221.966ZM111.123 205.207C123.198 212.178 137.96 210.254 147.835 201.477L144.513 197.74C136.201 205.128 123.777 206.739 113.623 200.877L111.123 205.207ZM98.9538 198.181L111.123 205.207L113.623 200.877L101.454 193.851L98.9538 198.181ZM116.257 196.808C125.536 202.166 137.097 199.972 143.838 192.138L140.048 188.877C134.846 194.923 125.916 196.612 118.757 192.478L116.257 196.808ZM108.794 192.5L116.257 196.808L118.757 192.478L111.294 188.17L108.794 192.5ZM116.06 183.975L108.794 188.17L111.294 192.5L118.56 188.305L116.06 183.975ZM143.864 188.907C137.157 180.86 125.442 178.558 116.06 183.975L118.56 188.305C125.799 184.125 134.847 185.898 140.023 192.108L143.864 188.907ZM148.072 179.067C138.198 170.284 123.43 168.357 111.353 175.33L113.853 179.66C124.009 173.796 136.437 175.41 144.749 182.803L148.072 179.067ZM111.353 175.33L98.9538 182.488L101.454 186.818L113.853 179.66L111.353 175.33ZM83.8735 178.112L98.9538 186.818L101.454 182.488L86.3735 173.782L83.8735 178.112ZM75.845 148.149C69.788 158.64 73.3825 172.055 83.8735 178.112L86.3735 173.782C78.2739 169.105 75.4988 158.749 80.1751 150.649L75.845 148.149ZM105.808 140.12C95.3169 134.063 81.902 137.658 75.845 148.149L80.1751 150.649C84.8514 142.549 95.2083 139.774 103.308 144.451L105.808 140.12ZM138.191 158.817L105.808 140.12L103.308 144.451L135.691 163.147L138.191 158.817ZM148.879 181.336C150.298 172.604 146.314 163.507 138.191 158.817L135.691 163.147C141.956 166.764 145.04 173.785 143.943 180.534L148.879 181.336Z" fill="white"/>
</svg>
