<svg width="608" height="128" viewBox="0 0 608 128" fill="none" xmlns="http://www.w3.org/2000/svg">
<path d="M11.7002 0.779297H98.7363C101.747 0.779297 104.433 1.95931 106.793 4.31934C109.234 6.59798 110.455 9.32422 110.455 12.498C110.455 15.1836 109.56 17.6657 107.77 19.9443L36.7246 103.807H98.7363C101.992 103.807 104.758 104.946 107.037 107.225C109.316 109.503 110.455 112.27 110.455 115.525C110.455 118.618 109.316 121.303 107.037 123.582C104.758 125.861 101.992 127 98.7363 127H11.7002C8.68913 127 6.00358 125.901 3.64355 123.704C1.36491 121.507 0.225586 118.781 0.225586 115.525C0.225586 112.921 1.16146 110.398 3.0332 107.957L73.9561 23.9727H11.7002C8.60775 23.9727 5.9222 22.8333 3.64355 20.5547C1.36491 18.276 0.225586 15.5905 0.225586 12.498C0.225586 9.24284 1.36491 6.47591 3.64355 4.19727C5.9222 1.91862 8.60775 0.779297 11.7002 0.779297ZM178.448 0.779297C189.516 0.779297 199.933 3.58691 209.698 9.20215C219.464 14.736 227.236 22.3451 233.014 32.0293C233.99 33.7383 234.479 35.6507 234.479 37.7666C234.479 42.2425 232.485 45.5791 228.497 47.7764L150.25 91.9658C158.144 99.8597 167.543 103.807 178.448 103.807C185.528 103.807 192.12 102.057 198.224 98.5576C204.409 95.0583 209.332 90.2975 212.994 84.2754C215.191 80.4505 218.528 78.5381 223.004 78.5381C226.096 78.5381 228.782 79.6774 231.061 81.9561C233.339 84.2347 234.479 87.0016 234.479 90.2568C234.479 92.3727 233.99 94.2852 233.014 95.9941C227.236 105.516 219.464 113.084 209.698 118.699C199.933 124.233 189.516 127 178.448 127C167.055 127 156.516 124.192 146.832 118.577C137.148 112.962 129.498 105.312 123.883 95.6279C118.268 85.9437 115.46 75.4049 115.46 64.0117C115.46 52.6185 118.268 42.0798 123.883 32.3955C129.498 22.6299 137.148 14.9395 146.832 9.32422C156.516 3.6276 167.055 0.779297 178.448 0.779297ZM178.448 23.9727C167.462 23.9727 158.103 27.9196 150.372 35.8135C142.641 43.626 138.775 53.0254 138.775 64.0117C138.775 65.7207 138.938 68.2028 139.264 71.458L205.426 34.4707C197.939 27.472 188.946 23.9727 178.448 23.9727ZM309.063 0.779297C317.283 0.779297 325.177 2.52897 332.745 6.02832C340.395 9.44629 346.987 14.2884 352.521 20.5547C354.555 22.8333 355.572 25.3154 355.572 28.001C355.572 30.9307 354.433 33.6162 352.154 36.0576C349.957 38.499 347.271 39.7197 344.098 39.7197C340.68 39.7197 337.75 38.377 335.309 35.6914C328.229 27.8789 319.48 23.9727 309.063 23.9727C299.298 23.9727 290.997 27.3906 284.161 34.2266C277.407 41.0625 274.029 49.3226 274.029 59.0068V115.525C274.029 118.618 272.89 121.303 270.611 123.582C268.333 125.861 265.566 127 262.311 127C259.218 127 256.533 125.861 254.254 123.582C251.975 121.303 250.836 118.618 250.836 115.525V59.0068C250.836 51.113 252.341 43.5853 255.353 36.4238C258.445 29.2624 262.595 23.0775 267.804 17.8691C273.012 12.6608 279.197 8.51042 286.358 5.41797C293.601 2.32552 301.17 0.779297 309.063 0.779297ZM392.926 9.32422C402.61 3.6276 413.149 0.779297 424.542 0.779297C435.935 0.779297 446.474 3.6276 456.158 9.32422C465.924 14.9395 473.614 22.6299 479.229 32.3955C484.926 42.0798 487.774 52.6185 487.774 64.0117C487.774 75.4049 484.926 85.9437 479.229 95.6279C473.614 105.312 465.924 112.962 456.158 118.577C446.474 124.192 435.935 127 424.542 127C413.149 127 402.61 124.192 392.926 118.577C383.242 112.962 375.592 105.312 369.977 95.6279C364.361 85.9437 361.554 75.4049 361.554 64.0117C361.554 52.6185 364.361 42.0798 369.977 32.3955C375.592 22.6299 383.242 14.9395 392.926 9.32422ZM452.74 35.8135C444.928 27.9196 435.528 23.9727 424.542 23.9727C413.556 23.9727 404.197 27.9196 396.466 35.8135C388.735 43.626 384.869 53.0254 384.869 64.0117C384.869 74.998 388.735 84.3975 396.466 92.21C404.197 99.9411 413.556 103.807 424.542 103.807C435.528 103.807 444.928 99.9411 452.74 92.21C460.634 84.3975 464.581 74.998 464.581 64.0117C464.581 53.0254 460.634 43.626 452.74 35.8135ZM553.692 0.779297C558.575 0.779297 563.377 1.30827 568.097 2.36621C572.898 3.34277 576.886 4.52279 580.06 5.90625C583.315 7.20833 586.285 8.63249 588.971 10.1787C591.738 11.7249 593.691 12.9456 594.83 13.8408C595.969 14.6546 596.702 15.2243 597.027 15.5498C600.038 17.9098 601.544 20.8802 601.544 24.4609C601.544 27.3906 600.405 30.0762 598.126 32.5176C595.847 34.8776 593.202 36.0576 590.191 36.0576C587.669 36.0576 585.187 35.2031 582.745 33.4941C581.606 32.5176 580.1 31.4596 578.229 30.3203C576.438 29.181 573.061 27.8382 568.097 26.292C563.214 24.7458 558.087 23.9727 552.716 23.9727C539.207 23.9727 532.452 28.1637 532.452 36.5459C532.452 39.1501 533.347 41.388 535.138 43.2598C536.928 45.1315 539.247 46.5557 542.096 47.5322C544.944 48.5088 547.752 49.2005 550.519 49.6074C553.367 50.0143 556.174 50.2178 558.941 50.2178C563.255 50.2178 567.527 50.584 571.759 51.3164C575.991 52.0488 580.304 53.3102 584.698 55.1006C589.093 56.891 592.918 59.1696 596.173 61.9365C599.509 64.6221 602.236 68.1621 604.352 72.5566C606.467 76.8698 607.525 81.7526 607.525 87.2051C607.525 95.6686 605.247 102.993 600.689 109.178C596.132 115.281 590.191 119.839 582.867 122.85C575.624 125.779 567.486 127.244 558.453 127.244C552.268 127.244 546.368 126.593 540.753 125.291C535.219 123.989 530.458 122.239 526.471 120.042C522.483 117.763 518.943 115.525 515.851 113.328C512.84 111.049 510.276 108.649 508.16 106.126C506.044 103.522 504.539 101.65 503.644 100.511C502.83 99.29 502.179 98.2728 501.69 97.459C500.714 96.0755 500.226 94.1631 500.226 91.7217C500.226 88.5479 501.324 85.8623 503.521 83.665C505.8 81.3864 508.608 80.2471 511.944 80.2471C515.932 80.2471 519.187 82.1595 521.71 85.9844C522.117 86.7168 522.646 87.5306 523.297 88.4258C523.948 89.321 525.331 90.7858 527.447 92.8203C529.645 94.8548 531.964 96.6452 534.405 98.1914C536.928 99.6562 540.265 100.999 544.415 102.22C548.565 103.44 553.001 104.051 557.721 104.051C560.569 104.051 563.417 103.807 566.266 103.318C569.114 102.749 571.962 101.894 574.811 100.755C577.659 99.5342 579.978 97.7845 581.769 95.5059C583.559 93.1458 584.454 90.3789 584.454 87.2051C584.454 82.8105 582.46 79.596 578.473 77.5615C574.566 75.4456 567.405 73.6553 556.988 72.1904C553.082 71.7021 550.03 71.2952 547.833 70.9697C545.636 70.6442 542.625 70.0745 538.8 69.2607C534.975 68.4469 531.882 67.5518 529.522 66.5752C527.244 65.5986 524.64 64.2152 521.71 62.4248C518.862 60.6344 516.624 58.6406 514.996 56.4434C513.45 54.2461 512.107 51.5199 510.968 48.2646C509.828 44.9281 509.259 41.266 509.259 37.2783C509.259 25.7223 513.328 16.7705 521.466 10.4229C529.685 3.99382 540.427 0.779297 553.692 0.779297Z" fill="#1C065A"/>
</svg>
